<svg width="14" height="14" viewBox="0 0 14 14" fill="none" xmlns="http://www.w3.org/2000/svg">
<path fill-rule="evenodd" clip-rule="evenodd" d="M2.5 0.5C1.39543 0.5 0.5 1.39543 0.5 2.5V5.37868C0.5 5.90911 0.710713 6.41782 1.08579 6.79289L7.4732 13.1803C8.08608 13.7932 9.06595 13.9709 9.83823 13.4653C11.2828 12.5195 12.5195 11.2828 13.4653 9.83823C13.9709 9.06595 13.7932 8.08608 13.1803 7.47319L6.79289 1.08579C6.41782 0.710713 5.90911 0.5 5.37868 0.5H2.5ZM3.25 4C3.66421 4 4 3.66421 4 3.25C4 2.83579 3.66421 2.5 3.25 2.5C2.83579 2.5 2.5 2.83579 2.5 3.25C2.5 3.66421 2.83579 4 3.25 4Z" fill="#00C16A"/>
</svg>
