<svg width="14" height="14" viewBox="0 0 14 14" fill="none" xmlns="http://www.w3.org/2000/svg">
<path fill-rule="evenodd" clip-rule="evenodd" d="M3.93331 0.600037C2.09236 0.600037 0.599976 2.09242 0.599976 3.93337V10.0667C0.599976 11.9077 2.09236 13.4 3.93331 13.4H10.0666C11.9076 13.4 13.4 11.9077 13.4 10.0667V3.93337C13.4 2.09242 11.9076 0.600037 10.0666 0.600037H3.93331ZM11.2643 4.22432C11.4986 3.99001 11.4986 3.61011 11.2643 3.37579C11.03 3.14148 10.6501 3.14148 10.4158 3.3758L5.08004 8.71153L3.58431 7.2158C3.34999 6.98148 2.97009 6.98148 2.73578 7.2158C2.50147 7.45011 2.50147 7.83001 2.73578 8.06432L4.65578 9.98432C4.7683 10.0968 4.92091 10.1601 5.08004 10.1601C5.23917 10.1601 5.39179 10.0968 5.50431 9.98432L11.2643 4.22432Z" fill="#60A5FA"/>
</svg>
